#!OML:ASF H:\Terrain\Walking\May29\JustinRory\Justin.ASF
:FULLY-SPECIFIED
:DEGREES
98
root 12.6075 17.5949 2.85754 183.537 -72.0572 -178.869
lowerback 7.75752 -1.75406 -2.72677
upperback 2.17241 -2.56777 3.3979
thorax -1.81949 -1.33042 5.29758
lowerneck -0.134683 -15.6058 -17.0299
upperneck 11.8106 -22.885 14.4645
head 7.26818 -11.3134 5.15768
rclavicle 4.27387e-014 1.35174e-014
rhumerus 3.63442 -28.5389 -48.9423
rradius 45.1368
rwrist -30.9276
rhand -13.1282 21.9362
rfingers 7.12502
rthumb 12.9696 -7.6407
lclavicle 4.27387e-014 1.35174e-014
lhumerus -28.6039 10.4466 75.5914
lradius 37.41
lwrist -4.69345
lhand 0.599303 39.4881
lfingers 7.12502
lthumb 26.1643 67.7051
rfemur -19.0145 3.76438 6.83638
rtibia 16.0725
rfoot -2.21707 -0.777484
rtoes -21.2179
lfemur -0.957845 -1.39421 -15.1424
ltibia 23.9875
lfoot -21.1034 13.4546
ltoes -7.20351
99
root 12.5883 17.5913 2.81093 182.836 -71.6257 -178.224
lowerback 8.07233 -1.49138 -2.67782
upperback 2.27775 -2.22569 3.55268
thorax -1.91843 -1.16385 5.41459
lowerneck -0.00115739 -15.7057 -17.0069
upperneck 11.3775 -22.9321 14.3375
head 7.09555 -11.3457 5.12838
rclavicle -2.5842e-014 1.66979e-014
rhumerus 4.63207 -28.7771 -48.5847
rradius 44.2595
rwrist -31.646
rhand -13.3576 21.6275
rfingers 7.12502
rthumb 12.7485 -7.96332
lclavicle -2.5842e-014 1.66979e-014
lhumerus -28.474 10.6691 75.8071
lradius 37.7952
lwrist -5.01579
lhand 0.750909 39.0613
lfingers 7.12502
lthumb 26.3094 67.2567
rfemur -19.4077 3.81178 7.19351
rtibia 16.7321
rfoot -2.09177 -1.10221
rtoes -21.9476
lfemur -1.04739 -0.869829 -14.8104
ltibia 24.7665
lfoot -21.5674 13.1393
ltoes -5.13835
100
root 12.5624 17.5631 2.78682 182.158 -71.783 -177.696
lowerback 8.49557 -1.39528 -2.25009
upperback 2.3556 -2.07467 3.61789
thorax -2.10266 -1.09017 5.24112
lowerneck 0.297731 -15.8187 -17.0717
upperneck 10.9682 -23.0744 14.429
head 6.9568 -11.4277 5.1755
rclavicle -7.15625e-014 5.1684e-014
rhumerus 5.16054 -28.7632 -47.9868
rradius 43.5862
rwrist -32.89
rhand -13.9373 21.399
rfingers 7.12502
rthumb 12.1896 -8.22582
lclavicle -7.15625e-014 5.1684e-014
lhumerus -28.3321 10.3725 76.1625
lradius 38.1975
lwrist -5.0935
lhand 0.638592 38.7302
lfingers 7.12502
lthumb 26.2019 66.9417
rfemur -19.7347 3.10704 7.47464
rtibia 17.6285
rfoot -1.5828 -1.06466
rtoes -18.0753
lfemur -1.15918 -0.939128 -14.5988
ltibia 25.5662
lfoot -21.9286 13.1279
ltoes -4.23615
101
root 12.5373 17.5349 2.76424 179.863 -72.0486 -175.672
lowerback 9.11386 -1.33767 -1.40334
upperback 2.48893 -1.94072 3.82836
thorax -2.34221 -1.03124 4.98853
lowerneck 0.536275 -15.9039 -17.3095
upperneck 10.7574 -23.2178 14.618
head 6.92557 -11.5083 5.26301
rclavicle 1.98785e-015 -1.59028e-015
rhumerus 5.69493 -29.0823 -47.5466
rradius 42.9707
rwrist -33.8071
rhand -14.4554 21.1652
rfingers 7.12502
rthumb 11.69 -8.48866
lclavicle 1.98785e-015 -1.59028e-015
lhumerus -28.2268 9.93692 76.5231
lradius 38.613
lwrist -5.09652
lhand 0.328378 38.5898
lfingers 7.12502
lthumb 25.9049 66.845
rfemur -19.7829 2.09405 8.43276
rtibia 18.6204
rfoot -0.974427 -0.323952
rtoes -15.493
lfemur -1.15995 -1.12795 -13.9285
ltibia 26.5028
lfoot -22.0409 13.7104
ltoes -5.89045
102
root 12.5148 17.5182 2.73983 178.322 -72.2595 -174.266
lowerback 9.48612 -1.17869 -0.936339
upperback 2.64934 -1.69915 4.01934
thorax -2.41226 -0.920766 4.90835
lowerneck 0.805053 -16.0874 -17.2641
upperneck 10.3238 -23.4575 14.7373
head 6.79191 -11.6308 5.28748
rclavicle -3.3197e-014 2.38542e-014
rhumerus 6.50311 -29.9886 -47.1057
rradius 41.8667
rwrist -34.2405
rhand -14.5963 21.0935
rfingers 7.12502
rthumb 11.5541 -8.56801
lclavicle -3.3197e-014 2.38542e-014
lhumerus -27.9271 9.42181 76.9512
lradius 38.9433
lwrist -4.99819
lhand 0.0669893 38.3324
lfingers 7.12502
lthumb 25.6545 66.6239
rfemur -20.0049 0.994116 9.25083
rtibia 19.7296
rfoot -0.831968 1.04782
rtoes -16.4871
lfemur -1.38236 -1.20449 -13.427
ltibia 27.4639
lfoot -22.2277 13.9477
ltoes -6.64592
103
root 12.4881 17.5166 2.72987 177.571 -72.9587 -173.32
lowerback 9.47644 -1.19113 -0.29188
upperback 2.66369 -1.65867 4.07062
thorax -2.4126 -0.904114 4.59017
lowerneck 1.11437 -16.2636 -16.9649
upperneck 9.90961 -23.6575 14.6022
head 6.58792 -11.739 5.21733
rclavicle -4.37326e-014 1.90833e-014
rhumerus 7.27387 -31.2584 -46.7196
rradius 40.5362
rwrist -34.2244
rhand -14.4598 21.2567
rfingers 7.12502
rthumb 11.6857 -8.39739
lclavicle -4.37326e-014 1.90833e-014
lhumerus -27.676 8.69271 77.3653
lradius 39.2799
lwrist -4.81826
lhand 0.313807 37.6917
lfingers 7.12502
lthumb 25.8909 65.949
rfemur -20.5204 -0.315131 9.72887
rtibia 21.0385
rfoot -1.2712 2.13348
rtoes -17.5003
lfemur -2.07812 -1.64099 -13.0936
ltibia 28.3028
lfoot -22.6123 13.529
ltoes -4.77932
104
root 12.4606 17.5222 2.70381 176.502 -73.3307 -172.164
lowerback 9.7414 -1.2511 0.246682
upperback 2.56256 -1.6785 4.20243
thorax -2.6736 -0.91375 4.43751
lowerneck 1.31187 -16.1769 -17.1207
upperneck 9.93474 -23.5293 14.3866
head 6.53331 -11.6989 5.20982
rclavicle -1.25234e-014 3.18055e-015
rhumerus 8.0738 -32.0034 -46.6426
rradius 39.4666
rwrist -33.7041
rhand -14.2663 21.2622
rfingers 7.12502
rthumb 11.8723 -8.38118
lclavicle -1.25234e-014 3.18055e-015
lhumerus -27.9167 8.40516 77.622
lradius 39.7021
lwrist -4.74378
lhand 0.854229 37.0082
lfingers 7.12502
lthumb 26.4083 65.1888
rfemur -20.8765 -1.36842 10.3252
rtibia 22.2664
rfoot -1.91803 2.87171
rtoes -19.3987
lfemur -2.53761 -1.73493 -12.6552
ltibia 29.1071
lfoot -22.8635 13.2048
ltoes -3.60228
105
root 12.4397 17.513 2.66481 176.461 -73.4076 -172.223
lowerback 10.2216 -1.14458 0.195881
upperback 2.44984 -1.5232 4.20859
thorax -3.06619 -0.829811 4.47492
lowerneck 1.60902 -16.1792 -17.1629
upperneck 10.071 -23.5887 14.2716
head 6.52679 -11.748 5.19505
rclavicle -2.62396e-014 4.77083e-015
rhumerus 8.44751 -32.4903 -46.5077
rradius 38.7375
rwrist -33.2226
rhand -14.1872 20.8686
rfingers 7.12502
rthumb 11.9486 -8.77036
lclavicle -2.62396e-014 4.77083e-015
lhumerus -28.1666 8.01428 77.8266
lradius 40.1144
lwrist -4.57523
lhand 1.24421 36.569
lfingers 7.12502
lthumb 26.7816 64.6931
rfemur -21.1209 -1.80731 10.517
rtibia 23.2115
rfoot -2.37516 3.14274
rtoes -20.8459
lfemur -2.8121 -1.47907 -12.5712
ltibia 29.9432
lfoot -22.6618 13.31
ltoes -5.08832
106
root 12.423 17.5039 2.62757 175.814 -73.6195 -171.572
lowerback 10.4502 -0.926472 0.309842
upperback 2.47843 -1.2185 4.20829
thorax -3.1879 -0.678863 4.37847
lowerneck 1.88012 -16.443 -16.718
upperneck 9.96433 -23.9823 14.2253
head 6.4508 -11.9394 5.09532
rclavicle 4.17448e-015 -9.54166e-015
rhumerus 8.53039 -33.2813 -46.0504
rradius 38.0556
rwrist -33.4314
rhand -14.3393 20.4756
rfingers 7.12502
rthumb 11.8019 -9.1719
lclavicle 4.17448e-015 -9.54166e-015
lhumerus -27.935 7.0451 78.1514
lradius 40.4249
lwrist -4.1171
lhand 1.4017 36.1739
lfingers 7.12502
lthumb 26.9323 64.2747
rfemur -21.362 -1.60457 10.7686
rtibia 23.9066
rfoot -2.60119 2.80408
rtoes -20.1203
lfemur -3.23832 -1.4705 -12.2712
ltibia 30.8082
lfoot -22.4427 13.3387
ltoes -6.35876
107
root 12.3985 17.4962 2.60125 174.352 -74.0502 -170.138
lowerback 10.6236 -0.839106 0.612147
upperback 2.60298 -1.07763 4.38187
thorax -3.16582 -0.618102 4.37452
lowerneck 1.9611 -16.6116 -16.4466
upperneck 9.91138 -24.1906 14.0556
head 6.39787 -12.0393 4.99067
rclavicle -9.54166e-015 6.44062e-014
rhumerus 9.02108 -34.0308 -45.6576
rradius 37.1439
rwrist -33.6524
rhand -14.4831 20.3229
rfingers 7.12502
rthumb 11.6633 -9.33242
lclavicle -9.54166e-015 6.44062e-014
lhumerus -27.7225 6.34204 78.6013
lradius 40.7465
lwrist -3.64766
lhand 1.1749 35.971
lfingers 7.12502
lthumb 26.7152 64.1052
rfemur -21.3299 -1.79359 11.1876
rtibia 24.367
rfoot -2.71628 2.76469
rtoes -18.8965
lfemur -3.6452 -1.73053 -11.8033
ltibia 31.7547
lfoot -22.5787 13.0957
ltoes -6.35019
108
root 12.3715 17.4814 2.59174 173.644 -74.7537 -169.547
lowerback 10.9152 -0.973518 0.7371
upperback 2.68088 -1.24274 4.57781
thorax -3.23134 -0.706833 4.54044
lowerneck 2.02987 -16.5912 -16.6484
upperneck 9.88241 -24.1347 13.913
head 6.37483 -12.024 4.9876
rclavicle -3.67752e-014 -1.98785e-014
rhumerus 10.0199 -34.9558 -45.8073
rradius 36.1469
rwrist -33.6693
rhand -14.6018 20.2625
rfingers 7.12502
rthumb 11.5488 -9.39935
lclavicle -3.67752e-014 -1.98785e-014
lhumerus -27.8342 6.17391 79.081
lradius 41.186
lwrist -3.34071
lhand 0.910367 35.8275
lfingers 7.12502
lthumb 26.4621 64.0001
rfemur -21.0766 -2.35402 11.2445
rtibia 24.6541
rfoot -2.88438 2.7829
rtoes -19.0489
lfemur -4.09537 -2.01315 -11.676
ltibia 32.774
lfoot -22.7954 12.5861
ltoes -5.03329
